PathFileType	4	(X/Y/Z)	Patient4_TMGait_0pt4_02_right_15.trc.trc
DataRate	CameraRate	NumFrames	NumMarkers	Units	OrigDataRate	OrigDataStartFrame	OrigNumFrames
76.502732240437	76.502732240437	6	33	mm	76.502732240437	1	       141
Frame#	Time	Sacral			L.Shoulder			Chest			R.Shoulder			Neck			R.ASIS			L.ASIS			R.Thigh.Superior			R.Thigh.Lateral			R.Thigh.Inferior			R.Patella			L.Thigh.Superior			L.Thigh.Lateral			L.Thigh.Inferior			L.Patella			L.Shank.Superior			L.Shank.Lateral			L.Shank.Inferior			R.Shank.Superior			R.Shank.Lateral			R.Shank.Inferior			R.Heel			R.Midfoot.Superior			R.Midfoot.Lateral			R.Toe			L.Heel			L.Midfoot.Lateral			L.Midfoot.Superior			L.Toe			L.Elbow			L.Wrist			R.Elbow			R.Wrist			
		X1	Y1	Z1	X2	Y2	Z2	X3	Y3	Z3	X4	Y4	Z4	X5	Y5	Z5	X6	Y6	Z6	X7	Y7	Z7	X8	Y8	Z8	X9	Y9	Z9	X10	Y10	Z10	X11	Y11	Z11	X12	Y12	Z12	X13	Y13	Z13	X14	Y14	Z14	X15	Y15	Z15	X16	Y16	Z16	X17	Y17	Z17	X18	Y18	Z18	X19	Y19	Z19	X20	Y20	Z20	X21	Y21	Z21	X22	Y22	Z22	X23	Y23	Z23	X24	Y24	Z24	X25	Y25	Z25	X26	Y26	Z26	X27	Y27	Z27	X28	Y28	Z28	X29	Y29	Z29	X30	Y30	Z30	X31	Y31	Z31	X32	Y32	Z32	X33	Y33	Z33	

1	19.360000000000	829.548893461376	1008.939247687564	432.991032298718	1008.482536367038	1434.099515420469	235.755452038948	1111.667859252935	1372.288490800233	398.704334176969	1028.055965879942	1448.450796880059	571.587520948380	989.968022575284	1499.882232389183	389.446330568376	1062.398427645088	953.117679331450	545.874106968081	1042.413240589711	965.982598489246	271.895265303807	1142.240627553988	778.682050407943	522.306932647814	1101.471265200061	658.854663187186	602.301219626419	1191.486422803566	617.514847875318	526.504847309794	1211.336089920558	509.259131117074	551.180246949031	1088.341464161424	752.747017497937	294.298251199657	992.493659773977	637.980585127703	243.338213552694	1080.356056333347	559.874446708164	299.920271447298	1079.720630455209	491.715184918434	311.021051893959	1053.982349584388	419.320690836156	306.106466732446	961.921145089092	303.470996939974	260.833325319609	1018.216207582846	194.326745058482	333.271454006325	1140.835582320021	429.798678528505	562.639007210074	1026.334393834051	382.769152209008	631.742114824634	1016.975895651650	271.552884376028	585.238110031023	819.495517419430	190.594979764264	574.366198339863	995.626932835877	148.823899507869	596.843082716868	890.176860597359	133.777316031454	639.741257140266	1075.839788077185	44.704516567515	613.285339443429	893.866688553805	38.706955042612	384.237614758013	965.635979532920	34.652502313456	301.201132182439	1049.100683140880	96.518126981712	325.428545589971	1177.493947629348	45.293319265713	295.082457238790	1041.540376124254	1090.140046622272	100.523386029486	1185.739331726803	871.262238527583	88.595415320778	1008.161778054856	1104.583650523168	704.243313377595	1137.086956345758	876.039818402565	703.704421270954	
2	19.373071428571	828.988356512319	1009.622217117174	431.644096942175	1010.513303170689	1434.650283214940	235.005265867383	1112.024058579681	1372.530538828216	398.825805048821	1026.998570133279	1448.724217945005	570.963520412598	990.549282847651	1500.330822944135	388.666062003439	1061.118833224751	953.941901692357	545.688157132920	1042.351808645784	966.102798119570	271.732382374008	1142.006961709570	780.755397851521	522.453779555826	1102.117009346266	660.707973066218	602.618484507303	1192.077223745271	619.765975965446	526.678175012795	1213.399609925628	513.124193978200	551.421620629759	1086.037966021099	752.200404474078	295.148323038433	989.374539937485	638.224738049094	243.154742094894	1076.132830441039	559.399533642893	300.105073824892	1074.763285263616	491.382546371977	311.076197623894	1048.948851518818	419.251270887227	306.011439975787	956.628364082393	303.603356841535	260.773554875729	1012.774672427583	194.323192317110	333.129321296732	1146.780312880223	431.849724379670	563.266522380364	1035.746385469742	379.184528085275	633.015975699129	1032.261425434827	267.811378503430	586.665152434855	840.206321765970	176.691617234407	576.635029689742	1017.550319115125	144.398400942331	598.533019707249	913.709002474800	124.241445365563	642.109886415777	1102.890007421768	45.100342698601	615.371325874782	888.299709479096	38.747263591541	384.159786413157	960.081031124760	34.650332513512	301.155988600790	1043.578549579943	96.499372041022	325.360207582479	1171.961700846595	45.235090378857	295.091668124371	1048.935737335846	1092.521194112359	98.040145185866	1200.855710097978	879.372586418476	85.873580261829	995.236317569759	1105.942608233899	701.910481254369	1109.103101951600	871.065285179624	703.873647371258	
3	19.386142857143	828.433328761654	1010.286495192982	430.336299825241	1012.562222007294	1435.155666845470	234.292110892685	1112.393917747878	1372.733696257711	398.981626051751	1025.958888769091	1448.973100905908	570.364573908414	991.147263062865	1500.745122478281	387.917249896146	1059.869300730193	954.712407090634	545.544237687091	1042.308094925074	966.212634799668	271.596088924178	1141.674108897765	782.654614217383	522.627422163886	1102.605763856326	662.434854599371	602.965280060166	1192.412180959665	621.801833350802	526.830216257485	1215.191715032378	516.838323304839	551.633484194166	1083.745712172593	751.650976487446	296.001340749751	986.286399346711	638.457954364742	242.966702079945	1071.954565735241	558.920244355077	300.271865359163	1069.859585962614	491.048089029967	311.113305826834	1043.968541881825	419.172982910357	305.909085401502	951.386015467956	303.729109383432	260.710694778683	1007.379252366243	194.313089049934	332.986161892684	1152.545440125346	433.813722895720	563.884150709779	1045.165544021840	375.508012949673	634.343792476664	1047.597445591749	264.077471782078	588.099195819991	861.197076966927	162.797867881289	578.973829384994	1039.636521125212	140.040213182310	600.215775223121	937.487653098662	114.785740731513	644.504675955902	1130.062940695736	45.654843950923	617.405505845734	882.775025827833	38.784118803153	384.085455552925	954.565562503864	34.646923249395	301.112975850788	1038.094952589665	96.479062741432	325.294528281878	1166.468040401907	45.174406581527	295.099554776427	1056.183410802782	1094.851988397306	95.596704114068	1215.757602882261	887.469874275056	83.229295488440	982.444058566782	1107.377437097072	699.646442841670	1081.454077453530	866.446764418350	704.022571618113	
4	19.399214285714	827.898361185326	1010.906997010955	429.111687742219	1014.636531065609	1435.570237503571	233.661116439951	1112.793232998503	1372.860804426260	399.209834746427	1024.967834323169	1449.176645702286	569.825476549494	991.779751321307	1501.090955055964	387.239319814489	1058.679574723856	955.370938881320	545.485231839044	1042.305016472554	966.299577313367	271.518583718345	1141.135738552141	784.200160563982	522.856609766271	1102.772394971027	663.908216691769	603.385169017547	1192.256678605394	623.416881978839	526.963424492499	1216.445124274452	520.250236504894	551.803065302600	1081.494025033427	751.092899384459	296.858014243637	983.266460725660	638.669793330051	242.779704768928	1067.862715210015	558.431091277768	300.419510301482	1065.057290597919	490.709523409212	311.132827484926	1039.089657278519	419.079217653251	305.804984470876	946.242378106943	303.843032224022	260.645801217392	1002.069985258364	194.290815622396	332.847915041378	1157.927231766168	435.626934951524	564.496186981537	1054.542659316504	371.707819986361	635.757591971861	1062.957712836056	260.436730788800	589.535199152396	882.656259931138	149.064000006207	581.386340434216	1061.946469683342	135.918548746448	601.875818277717	961.646649540272	105.589515894401	646.897612714060	1157.349272564699	46.600048286422	619.318093961775	877.325750065462	38.814859382106	384.018218080251	949.120999908532	34.641951215897	301.074010304506	1032.680802662439	96.455688708799	325.235016999590	1161.043819276653	45.109162660240	295.105120053705	1063.136139720273	1097.075360432582	93.249421355535	1230.205543906124	895.525916271744	80.755997468362	969.952821002303	1108.965585489966	697.527319215641	1054.537309010442	862.528551370085	704.138592476517	
5	19.412285714286	827.400231190534	1011.461349619547	428.006813414692	1016.742399134388	1435.854462072987	233.151890538546	1113.237605678056	1372.880872106038	399.543975726455	1024.057837335994	1449.320051991847	569.377134431015	992.463986495504	1501.339549494420	386.666529113420	1057.570769745968	955.864331804430	545.546428135077	1042.358745962489	966.350412321892	271.528569658850	1140.293636966035	785.235378221788	523.164442327309	1102.465795213905	665.024993326196	603.924050063712	1191.411584132869	624.441110325019	527.094249667278	1216.935438166022	523.237752390627	551.929009717574	1079.308542147779	750.517002069502	297.713614512899	980.338282037606	638.852131390335	242.601453277336	1063.878817757161	557.925077407564	300.552109474421	1060.380936190139	490.363585164691	311.141849352237	1034.337241038467	418.964526377271	305.708441228212	941.223100504921	303.940951303718	260.580758036981	996.863519898811	194.251439069052	332.722198008700	1162.755627925646	437.252732845031	565.115036403745	1063.845638465393	367.777584973676	637.280263191532	1078.335438610300	256.996583728635	590.962717936669	904.779088643445	135.659315654486	583.849246198722	1084.562388207947	132.225617125873	603.496545618011	986.328371962626	96.846285289002	649.244512767505	1184.763698262032	48.178716705461	621.044522341312	871.961152692974	38.837037442640	383.960295805836	943.755349868059	34.635216397042	301.040372772933	1027.343876748250	96.427853031801	325.184955936925	1155.696789259745	45.037301843109	295.108045002865	1069.691914034421	1099.144909729086	91.045106200165	1244.027312940567	903.530693828340	78.532836297151	957.887479179944	1110.779418382168	695.615629042550	1028.643456766598	859.581738310535	704.218809368055	
6	19.425357142857	826.957434977243	1011.931074587581	427.048714596544	1018.879680647709	1435.979094964339	232.796082180537	1113.739960467773	1372.772922836477	400.009511434263	1023.261672459152	1449.396248509388	569.045215268043	993.213518397243	1501.470549714187	386.226269936624	1056.555717498460	956.150181562462	545.752509428846	1042.480932737650	966.354406045365	271.648237552318	1139.071282919911	785.643445765907	523.566433510845	1101.567602797211	665.715510919863	604.624839536554	1189.741641288858	624.759626394225	527.252835920086	1216.507495069419	525.716528252646	552.022833826610	1077.214186122650	749.912779851595	298.558617771418	977.515347001510	638.999934588591	242.442303798890	1060.009032806318	557.395341009775	300.680408966418	1055.836980059357	490.006952740636	311.155018757046	1029.718037474464	418.825524755029	305.632948619792	936.336811717942	304.020375045857	260.518769039619	991.759641443371	194.191578214324	332.618167702366	1166.902913592342	438.683473579768	565.759235893673	1073.038815328351	363.747386015625	638.917642891725	1093.706472167446	253.882843990791	592.363451490112	927.690694077830	122.784443303664	586.304630879589	1107.523232055641	129.163829215537	605.057774560190	1011.606870471310	88.760162228311	651.481245276606	1212.278030858901	50.613392544426	622.528543068491	866.673895301223	38.849169020791	383.912389740191	938.460893229761	34.626807577232	301.012662849951	1022.076575819019	96.394527542809	325.147232454528	1150.419213176743	44.957149192864	295.108630532077	1075.792850500569	1101.026038840559	89.021949256953	1257.109740744039	911.477854707675	76.621612297482	946.341808387331	1112.874872721763	693.958666001386	1003.975986399458	857.778206898658	704.270064626434	
